<svg width="348" height="103" viewBox="0 0 348 103" fill="none" xmlns="http://www.w3.org/2000/svg">
<path d="M215.448 45.956C207.682 45.956 200.979 48.6986 195.457 54.3011C189.787 59.9033 187.04 66.6727 187.04 74.4927C187.04 82.3127 189.787 89.0818 195.457 94.5382C200.979 100.141 207.682 103 215.448 103C223.214 103 230.065 100.142 235.705 94.5382C241.227 89.0818 244.003 82.3124 244.003 74.4927C244.003 66.673 241.227 59.9036 235.705 54.3011C230.066 48.6989 223.215 45.956 215.448 45.956ZM226.108 85.0259C223.215 88.0312 219.671 89.4317 215.448 89.4317C213.481 89.4657 211.529 89.091 209.718 88.3321C207.907 87.5731 206.278 86.4467 204.936 85.0259C202.042 82.0205 200.447 78.5192 200.447 74.4633C200.418 72.4748 200.801 70.5014 201.573 68.6648C202.345 66.8282 203.49 65.1672 204.936 63.784C207.828 60.7784 211.373 59.3487 215.448 59.4948C219.671 59.349 223.215 60.8078 226.227 63.784C229.002 66.6421 230.449 70.1741 230.597 74.4633C230.518 78.4208 228.912 82.199 226.108 85.0259Z" fill="#EF3829"/>
<path d="M35.2584 45.46C39.4811 45.46 43.2905 46.6272 46.9818 48.9613C50.3115 51.2451 52.9869 54.341 54.7481 57.9482H69.0991C67.0024 50.391 62.8977 44.147 56.7264 39.3323C50.407 34.3719 43.1722 31.892 35.258 32.0378C25.3951 31.9223 17.2155 35.3059 10.3941 42.3086C3.42545 49.224 0 57.4231 0 67.1979C0 76.8268 3.42544 85.3178 10.3944 92.2038C17.2453 98.9732 25.3954 102.358 35.2584 102.358C43.1725 102.358 50.407 100.024 56.7267 95.18C62.9278 90.2196 67.0027 84.1228 69.0994 76.5641H54.7478C52.9462 80.1451 50.2787 83.2319 46.9815 85.551C43.2905 87.7685 39.4811 88.9357 35.258 88.9357C29.2045 88.9357 24.0663 86.7183 19.8731 82.5457C15.5322 78.2565 13.4356 73.1794 13.5539 67.1979C13.4371 61.2163 15.5322 56.1393 19.8731 51.8501C24.0959 47.6483 29.2048 45.46 35.2584 45.46Z" fill="#EF3829"/>
<path d="M138.051 49.3404C133.297 46.8602 128.04 45.693 122.134 45.8099C112.921 45.6638 106.484 48.144 102.793 52.9875C100.43 55.9637 99.2491 59.903 98.8356 64.834H112.539C112.804 62.4996 113.602 60.9241 114.517 59.8736C115.964 58.0354 118.327 57.1309 121.752 57.2767C124.645 57.1306 126.89 57.6561 128.455 58.5897C130.02 59.3776 130.699 60.9241 130.818 63.1416C130.818 64.9506 129.755 66.4097 127.658 67.3142L117.114 69.0069C112.242 69.6781 108.314 70.8158 105.273 72.5373C100.135 75.5427 97.6541 80.3574 97.7724 87.2726C97.6555 92.0869 99.2195 95.997 102.379 98.8563C105.155 101.22 108.964 102.504 113.569 102.65C121.069 102.504 126.976 100.694 131.199 97.0473V102.65H144.901V62.7626C144.901 56.2559 142.51 51.7054 138.051 49.3404ZM130.55 80.4737C130.55 85.1422 129.221 88.4103 126.74 90.2193C124.258 92.0186 121.255 92.9802 118.177 92.9619C116.198 92.9619 114.633 92.4368 113.304 91.4154C112.005 90.219 111.326 88.5573 111.326 86.0744C111.326 83.3318 112.389 81.3767 114.604 79.9468C115.932 79.159 118.147 78.5172 121.041 78.1087L127.892 76.4163L130.52 74.9867V80.472L130.55 80.4737Z" fill="#EF3829"/>
<path d="M89.7701 32.0378H76.0683V102.62H89.7701V32.0378Z" fill="#EF3829"/>
<path d="M182.138 46.3648L176.853 47.7944C173.191 49.224 169.884 51.7043 167.108 55.4683V48.5823L154.085 48.4668V102.65H167.639V76.7394C167.639 72.3041 168.171 69.1821 169.352 67.2273C170.267 65.1556 171.98 63.4633 174.076 62.0336C176.276 60.5107 178.893 59.6866 181.579 59.6712L185.772 59.9339L185.655 46.1324L182.138 46.3648Z" fill="#EF3829"/>
<path d="M270.728 6.76941L237.684 39.4501L246.365 48.0577L279.41 15.377L270.728 6.76941Z" fill="#EF3829"/>
<path d="M223.184 0H210.959V35.0434H223.184V0Z" fill="#EF3829"/>
<path d="M288.622 61.5957H252.419V73.7048H288.622V61.5957Z" fill="#EF3829"/>
<path d="M303.885 59.0951V101.927H294.72V59.0951H303.885Z" fill="black"/>
<path d="M326.792 101.927H311.425V59.0951H326.919C331.279 59.0951 335.032 59.9525 338.179 61.6675C341.326 63.3685 343.746 65.8155 345.439 69.0084C347.146 72.2013 348 76.0217 348 80.4695C348 84.9312 347.146 88.7654 345.439 91.9723C343.746 95.1792 341.312 97.6401 338.137 99.355C334.976 101.07 331.194 101.927 326.792 101.927ZM320.59 94.1683H326.411C329.12 94.1683 331.399 93.6942 333.247 92.7461C335.11 91.7841 336.507 90.2992 337.438 88.2914C338.384 86.2697 338.856 83.6624 338.856 80.4695C338.856 77.3044 338.384 74.718 337.438 72.7103C336.507 70.7025 335.117 69.2245 333.268 68.2764C331.42 67.3283 329.141 66.8543 326.432 66.8543H320.59V94.1683Z" fill="black"/>
</svg>
