<svg width="30" height="18" viewBox="0 0 30 18" fill="none" xmlns="http://www.w3.org/2000/svg">
<g clip-path="url(#clip0_324_4339)">
<path d="M28.9428 6.32348C26.7594 3.96 22.0541 0 14.9808 0C7.90748 0 3.27909 3.91304 1.09559 6.24522C-0.365197 7.81043 -0.365197 10.1896 1.09559 11.7704C3.26371 14.1026 7.96899 18.0157 14.9808 18.0157C21.9926 18.0157 26.7594 14.0557 28.9428 11.6922C30.3575 10.1583 30.3575 7.85739 28.9428 6.32348ZM27.2668 10.08C25.3447 12.1617 21.193 15.6522 14.9962 15.6522C8.79933 15.6522 4.69375 12.193 2.77166 10.1426C2.15659 9.48522 2.15659 8.51478 2.77166 7.85739C4.69375 5.80696 8.83009 2.34783 14.9808 2.34783C21.1315 2.34783 25.3293 5.83826 27.2514 7.92C27.8203 8.53043 27.8203 9.45391 27.2514 10.0643L27.2668 10.08Z" fill="#B4B4B4"/>
<path d="M14.9942 4.69556C12.657 4.69556 10.7656 6.62077 10.7656 8.9999C10.7656 11.379 12.657 13.3043 14.9942 13.3043C17.3315 13.3043 19.2228 11.379 19.2228 8.9999C19.2228 6.62077 17.3315 4.69556 14.9942 4.69556ZM14.9942 10.9564C13.9332 10.9564 13.0721 10.0799 13.0721 8.9999C13.0721 7.9199 13.9332 7.04338 14.9942 7.04338C16.0552 7.04338 16.9163 7.9199 16.9163 8.9999C16.9163 10.0799 16.0552 10.9564 14.9942 10.9564Z" fill="#B4B4B4"/>
</g>
<defs>
<clipPath id="clip0_324_4339">
<rect width="30" height="18" fill="white"/>
</clipPath>
</defs>
</svg>
