<svg width="100" height="37" viewBox="0 0 100 37" fill="none" xmlns="http://www.w3.org/2000/svg">
<g clip-path="url(#clip0_5_61)">
<path d="M74.6473 16.5083C71.9566 16.5083 69.6344 17.4935 67.7211 19.5065C65.7562 21.5184 64.8047 23.9504 64.8047 26.7599C64.8047 29.5693 65.7562 32.0002 67.7211 33.9603C69.6344 35.9733 71.9566 37 74.6473 37C77.338 37 79.7118 35.9733 81.6655 33.9603C83.5788 32.0002 84.5405 29.5683 84.5405 26.7599C84.5405 23.9514 83.5788 21.5195 81.6655 19.5065C79.7118 17.4946 77.338 16.5083 74.6473 16.5083ZM78.3401 30.5431C77.338 31.6227 76.1101 32.1257 74.6473 32.1257C73.2695 32.1506 71.9454 31.575 71.005 30.5431C70.0018 29.4635 69.4501 28.2056 69.4501 26.7485C69.4299 25.3048 69.9927 23.9162 71.005 22.9123C72.0072 21.8327 73.2351 21.3193 74.6473 21.3712C76.1101 21.3183 77.338 21.8431 78.3816 22.9123C79.3433 23.939 79.8444 25.2074 79.896 26.7485C79.8687 28.1703 79.312 29.5278 78.3412 30.5431" fill="#A7A7A7"/>
<path d="M12.2164 16.3299C13.6792 16.3299 14.9992 16.7489 16.2778 17.5879C17.4318 18.4082 18.3581 19.52 18.9685 20.8163H23.9409C23.2141 18.1012 21.7928 15.8591 19.6538 14.1292C17.4642 12.3475 14.9577 11.4566 12.2154 11.5085C8.7979 11.467 5.96447 12.6825 3.60075 15.1984C1.18641 17.6822 0 20.6276 0 24.1391C0 27.6507 1.18642 30.6479 3.60176 33.1223C6.01711 35.5968 8.79891 36.7697 12.2164 36.7697C14.9587 36.7697 17.4652 35.9307 19.6548 34.1916C21.8029 32.4099 23.2151 30.2195 23.9419 27.5045H18.9695C18.3449 28.7904 17.4207 29.9001 16.2788 30.7329C15.0003 31.5294 13.6802 31.9484 12.2174 31.9484C10.12 31.9484 8.34034 31.1519 6.88667 29.6533C5.3824 28.1122 4.65658 26.289 4.69707 24.1402C4.65658 21.9913 5.3824 20.1681 6.88667 18.627C8.34945 17.1181 10.12 16.332 12.2174 16.332" fill="#A7A7A7"/>
<path d="M47.8337 17.7248C46.1867 16.8339 44.3655 16.4149 42.3187 16.4564C39.1269 16.4035 36.8958 17.2944 35.6173 19.0346C34.7983 20.1038 34.3893 21.5184 34.2466 23.2898H38.9943C39.0864 22.4508 39.3628 21.8855 39.6796 21.508C40.1807 20.8474 40.9997 20.5228 42.1861 20.5757C43.1882 20.5228 43.9657 20.7116 44.5083 21.0476C45.0509 21.3307 45.2857 21.8866 45.3262 22.6831C45.3262 23.3333 44.9577 23.857 44.2319 24.1816L40.5785 24.7894C38.89 25.031 37.5295 25.4396 36.4757 26.0577C34.6951 27.1373 33.8356 28.8672 33.8771 31.351C33.8366 33.0809 34.3782 34.4851 35.4735 35.5118C36.4352 36.3611 37.7552 36.8216 39.3506 36.8745C41.9492 36.8216 43.9961 36.1724 45.4588 34.8626V36.8745H50.2065V22.5462C50.2065 20.2086 49.3774 18.5741 47.8327 17.7248M45.2341 28.9087C45.2341 30.5856 44.7735 31.7596 43.9141 32.4099C43.0536 33.056 42.014 33.4013 40.947 33.3951C40.2617 33.3951 39.7191 33.2063 39.2585 32.8392C38.808 32.4099 38.5732 31.8125 38.5732 30.9206C38.5732 29.9354 38.9416 29.2333 39.709 28.7189C40.1696 28.4358 40.9369 28.2055 41.9391 28.0583L44.3129 27.4505L45.223 26.9372V28.9076H45.2331L45.2341 28.9087Z" fill="#A7A7A7"/>
<path d="M31.0992 11.5085H26.3516V36.8642H31.0992V11.5085Z" fill="#A7A7A7"/>
<path d="M63.1019 16.6555L61.2706 17.1689C60.0022 17.6822 58.8563 18.5731 57.8946 19.9255V17.452L53.3828 17.4105V36.8745H58.0789V27.5667C58.0789 25.9737 58.2631 24.8516 58.6721 24.1495C58.9889 23.4049 59.5821 22.7971 60.309 22.2838C61.0712 21.7362 61.9772 21.4406 62.9085 21.4355L64.3612 21.5298L64.3207 16.5715L63.1019 16.6545V16.6555Z" fill="#A7A7A7"/>
<path d="M93.8007 2.43188L82.3516 14.1717L85.3591 17.2632L96.8082 5.52343L93.8007 2.43188Z" fill="#A7A7A7"/>
<path d="M77.3292 0H73.0938V12.5881H77.3292V0Z" fill="#A7A7A7"/>
<path d="M99.9965 22.1272H87.4531V26.4767H99.9965V22.1272Z" fill="#A7A7A7"/>
</g>
<defs>
<clipPath id="clip0_5_61">
<rect width="100" height="37" fill="white"/>
</clipPath>
</defs>
</svg>
